<svg xmlns="http://www.w3.org/2000/svg" width="1400" height="520" viewBox="0 0 1400 520" role="img" aria-labelledby="title desc">
<title id="title">DPN Quality Gates</title><desc id="desc">A sequence of architecture, code, security, test, artifact, release and operational gates.</desc>
<defs>
 <linearGradient id="bg" x1="0" x2="1"><stop stop-color="#06070a"/><stop offset="1" stop-color="#10080b"/></linearGradient>
 <pattern id="grid" width="34" height="34" patternUnits="userSpaceOnUse"><path d="M34 0H0V34" fill="none" stroke="#fff" stroke-opacity=".024"/></pattern>
</defs>
<rect width="1400" height="520" rx="24" fill="url(#bg)"/><rect width="1400" height="520" rx="24" fill="url(#grid)"/>
<text x="70" y="58" font-family="Segoe UI,Arial,sans-serif" font-size="14" font-weight="800" fill="#ff5360" letter-spacing="4">QUALITY GATE SYSTEM</text>
<text x="70" y="90" font-family="Segoe UI,Arial,sans-serif" font-size="22" font-weight="750" fill="#f4f4f6">A change advances because evidence clears gates—not because a branch exists.</text>
<path d="M120 264H1280" stroke="#e50914" stroke-opacity=".20" stroke-width="2"/>
<g font-family="Segoe UI,Arial,sans-serif" text-anchor="middle">
 <g transform="translate(140 264)"><rect x="-72" y="-75" width="144" height="150" rx="18" fill="#0d0e12" stroke="#656872" stroke-opacity=".36"/><text y="-31" font-size="14" font-weight="850" fill="#fff">ARCH</text><text y="-7" font-size="9" fill="#858b94">BOUNDARIES</text><text y="14" font-size="9" fill="#858b94">DATA • TRUST</text><text y="49" font-family="Consolas,monospace" font-size="8" fill="#6e737d">GATE 01</text></g>
 <g transform="translate(325 264)"><rect x="-72" y="-75" width="144" height="150" rx="18" fill="#0d0e12" stroke="#9b5cff" stroke-opacity=".34"/><text y="-31" font-size="14" font-weight="850" fill="#fff">SOURCE</text><text y="-7" font-size="9" fill="#858b94">LINT • TYPES</text><text y="14" font-size="9" fill="#858b94">DEPENDENCIES</text><text y="49" font-family="Consolas,monospace" font-size="8" fill="#8d78b5">GATE 02</text></g>
 <g transform="translate(510 264)"><rect x="-72" y="-75" width="144" height="150" rx="18" fill="#0d0e12" stroke="#e50914" stroke-opacity=".38"/><text y="-31" font-size="14" font-weight="850" fill="#fff">SECURITY</text><text y="-7" font-size="9" fill="#858b94">SAST • SECRETS</text><text y="14" font-size="9" fill="#858b94">POLICY</text><text y="49" font-family="Consolas,monospace" font-size="8" fill="#ff6571">GATE 03</text></g>
 <g transform="translate(695 264)"><rect x="-72" y="-75" width="144" height="150" rx="18" fill="#0d0e12" stroke="#5edfff" stroke-opacity=".34"/><text y="-31" font-size="14" font-weight="850" fill="#fff">TEST</text><text y="-7" font-size="9" fill="#858b94">UNIT • INTEGRATION</text><text y="14" font-size="9" fill="#858b94">RUNTIME</text><text y="49" font-family="Consolas,monospace" font-size="8" fill="#70dbe9">GATE 04</text></g>
 <g transform="translate(880 264)"><rect x="-72" y="-75" width="144" height="150" rx="18" fill="#0d0e12" stroke="#ff5b13" stroke-opacity=".34"/><text y="-31" font-size="14" font-weight="850" fill="#fff">ARTIFACT</text><text y="-7" font-size="9" fill="#858b94">BUILD • HASH</text><text y="14" font-size="9" fill="#858b94">SBOM</text><text y="49" font-family="Consolas,monospace" font-size="8" fill="#d9855f">GATE 05</text></g>
 <g transform="translate(1065 264)"><rect x="-72" y="-75" width="144" height="150" rx="18" fill="#0d0e12" stroke="#f0b24b" stroke-opacity=".34"/><text y="-31" font-size="14" font-weight="850" fill="#fff">RELEASE</text><text y="-7" font-size="9" fill="#858b94">NOTES • VERSION</text><text y="14" font-size="9" fill="#858b94">ROLLBACK</text><text y="49" font-family="Consolas,monospace" font-size="8" fill="#d9aa5d">GATE 06</text></g>
 <g transform="translate(1250 264)"><rect x="-72" y="-75" width="144" height="150" rx="18" fill="#0d0e12" stroke="#59d98e" stroke-opacity=".40"/><text y="-31" font-size="14" font-weight="850" fill="#fff">OPERATE</text><text y="-7" font-size="9" fill="#858b94">HEALTH • AUDIT</text><text y="14" font-size="9" fill="#858b94">RECOVERY</text><text y="49" font-family="Consolas,monospace" font-size="8" fill="#65d995">GATE 07</text></g>
</g>
<g fill="#e50914" opacity=".48"><path d="M226 258l18 6-18 6z"/><path d="M411 258l18 6-18 6z"/><path d="M596 258l18 6-18 6z"/><path d="M781 258l18 6-18 6z"/><path d="M966 258l18 6-18 6z"/><path d="M1151 258l18 6-18 6z"/></g>
<g transform="translate(250 410)"><rect width="900" height="54" rx="12" fill="#0d0e12" stroke="#e50914" stroke-opacity=".16"/><text x="450" y="33" text-anchor="middle" font-family="Consolas,monospace" font-size="10" fill="#767b84" letter-spacing="1.25">A FAILED GATE IS INFORMATION • BYPASS REQUIRES EXPLICIT RISK OWNERSHIP</text></g>
<rect x="1" y="1" width="1398" height="518" rx="23" fill="none" stroke="#e50914" stroke-opacity=".14"/>
</svg>