<svg xmlns="http://www.w3.org/2000/svg" width="1400" height="430" viewBox="0 0 1400 430" role="img" aria-labelledby="title desc">
<title id="title">DPN Technology</title><desc id="desc">Develop. Pioneer. Navigate. Software, infrastructure, AI and interactive systems.</desc>
<defs>
  <linearGradient id="bg" x1="0" y1="0" x2="1" y2="1"><stop stop-color="#030406"/><stop offset=".48" stop-color="#09090d"/><stop offset="1" stop-color="#130509"/></linearGradient>
  <radialGradient id="glow" cx=".74" cy=".46" r=".58"><stop stop-color="#e50914" stop-opacity=".27"/><stop offset="1" stop-color="#e50914" stop-opacity="0"/></radialGradient>
  <linearGradient id="redline" x1="0" x2="1"><stop stop-color="#5d070c"/><stop offset=".45" stop-color="#ff2637"/><stop offset="1" stop-color="#5d070c"/></linearGradient>
  <pattern id="grid" width="42" height="42" patternUnits="userSpaceOnUse"><path d="M42 0H0V42" fill="none" stroke="#ffffff" stroke-opacity=".028"/></pattern>
  <filter id="glowf"><feGaussianBlur stdDeviation="7"/></filter>
</defs>
<rect width="1400" height="430" rx="28" fill="url(#bg)"/><rect width="1400" height="430" rx="28" fill="url(#grid)"/><rect width="1400" height="430" rx="28" fill="url(#glow)"/>
<g opacity=".13" fill="#e50914" font-family="Consolas,monospace" font-size="16"><text x="895" y="48">01000100 01010000 01001110</text><text x="980" y="76">01010100 01000101 01000011 01001000</text><text x="846" y="358">01000100 01000101 01010110 01000101 01001100 01001111 01010000</text><text x="984" y="388">01010000 01001001 01001111 01001110 01000101 01000101 01010010</text></g>
<g transform="translate(1110 214)" fill="none" stroke="#e50914"><circle r="124" stroke-opacity=".16"/><circle r="88" stroke-opacity=".24" stroke-dasharray="7 11"/><circle r="51" stroke-opacity=".38"/><path d="M-124 0H124M0-124V124" stroke-opacity=".12"/><path d="M0 0L101-58" stroke-width="2" stroke-opacity=".55"/><circle cx="101" cy="-58" r="6" fill="#ff3342" stroke="none"/><circle cx="-66" cy="52" r="4" fill="#ff3342" stroke="none" opacity=".8"/><circle r="18" fill="#1a070a" stroke-opacity=".65"/></g>
<path d="M714 40 L763 117 L741 130 L796 192 L758 214 L822 298" fill="none" stroke="url(#redline)" stroke-width="2" opacity=".42" filter="url(#glowf)"/>
<rect x="74" y="73" width="56" height="5" rx="2.5" fill="#e50914"/><text x="74" y="118" font-family="Segoe UI,Arial,sans-serif" font-size="18" font-weight="800" fill="#ff5360" letter-spacing="5">DPN TECHNOLOGY</text>
<text x="74" y="192" font-family="Segoe UI,Arial,sans-serif" font-size="56" font-weight="900" fill="#f7f7f9">Develop. Pioneer. Navigate.</text><text x="74" y="240" font-family="Segoe UI,Arial,sans-serif" font-size="21" font-weight="500" fill="#a0a1aa">Software • Infrastructure • AI • Interactive Systems</text>
<g transform="translate(74 292)"><rect width="172" height="44" rx="10" fill="#0d0e12" stroke="#e50914" stroke-opacity=".30"/><text x="86" y="28" text-anchor="middle" font-family="Consolas,monospace" font-size="12" font-weight="800" fill="#f2f2f5">BUILD WITH EVIDENCE</text><rect x="188" width="168" height="44" rx="10" fill="#0d0e12" stroke="#e50914" stroke-opacity=".22"/><text x="272" y="28" text-anchor="middle" font-family="Consolas,monospace" font-size="12" font-weight="800" fill="#f2f2f5">SECURE BY DESIGN</text><rect x="372" width="178" height="44" rx="10" fill="#0d0e12" stroke="#e50914" stroke-opacity=".18"/><text x="461" y="28" text-anchor="middle" font-family="Consolas,monospace" font-size="12" font-weight="800" fill="#f2f2f5">RECOVERABLE SYSTEMS</text></g>
<text x="74" y="382" font-family="Consolas,monospace" font-size="12" font-weight="700" fill="#676a73" letter-spacing="2">DPN://ORGANIZATION • ENGINEERING THE NEXT OPERATING LAYER</text><rect x="1" y="1" width="1398" height="428" rx="27" fill="none" stroke="#e50914" stroke-opacity=".24"/>
</svg>